<svg width="512" height="512" viewBox="0 0 512 512" fill="none" xmlns="http://www.w3.org/2000/svg">
<path opacity="0.5" fill-rule="evenodd" clip-rule="evenodd" d="M213.668 469.67H299.002C379.455 469.67 419.683 469.67 444.676 444.676C469.67 419.683 469.67 379.455 469.67 299.002V289.677C469.67 271.057 469.67 257.069 468.761 245.67H384.336H382.311C358.906 245.673 338.224 245.675 321.549 243.432C303.478 241.003 285.408 235.424 270.663 220.676C255.915 205.929 250.336 187.86 247.906 169.788C245.664 153.116 245.666 132.432 245.668 109.027L245.865 48.5589C245.871 46.8001 246.022 45.0606 246.308 43.3554C237.591 43 227.232 43 214.304 43C133.426 43 92.9876 43 67.9937 67.9937C43 92.9876 43 133.214 43 213.668V299.002C43 379.455 43 419.683 67.9937 444.676C92.9876 469.67 133.214 469.67 213.668 469.67Z" fill="#FFCA28"/>
<path d="M228.653 304.623C231.757 296.35 227.565 287.128 219.289 284.026C211.016 280.922 201.794 285.114 198.691 293.389L166.691 378.723C163.588 386.996 167.78 396.219 176.054 399.321C184.328 402.425 193.551 398.233 196.653 389.957L228.653 304.623Z" fill="#FFCA28"/>
<path d="M160.981 310.32C167.23 304.071 167.23 293.942 160.981 287.693C154.733 281.445 144.602 281.445 138.354 287.693L117.02 309.027C110.772 315.275 110.772 325.404 117.02 331.653L138.354 352.987C144.602 359.235 154.733 359.235 160.981 352.987C167.23 346.738 167.23 336.609 160.981 330.36L150.962 320.34L160.981 310.32Z" fill="#FFCA28"/>
<path d="M256.981 330.36C250.732 324.112 240.603 324.112 234.354 330.36C228.106 336.609 228.106 346.738 234.354 352.987L244.373 363.007L234.354 373.027C228.106 379.276 228.106 389.405 234.354 395.654C240.603 401.902 250.732 401.902 256.981 395.654L278.314 374.32C284.563 368.071 284.563 357.942 278.314 351.694L256.981 330.36Z" fill="#FFCA28"/>
<path d="M245.865 48.5488L245.669 109.017C245.666 132.421 245.664 153.106 247.906 169.778C250.336 187.85 255.915 205.92 270.663 220.668C285.411 235.413 303.478 240.992 321.552 243.422C338.224 245.664 358.907 245.662 382.312 245.66H468.762C469.026 248.979 469.214 252.516 469.346 256.324H469.67C469.67 250.618 469.67 247.765 469.459 244.405C468.252 225.322 460.32 203.455 449.009 188.036C447.018 185.322 445.655 183.693 442.933 180.434C426.026 160.197 403.771 134.989 384.336 117.657C367.039 102.231 343.348 85.3547 322.685 71.5549C304.935 59.6988 296.058 53.7706 283.888 49.3646C280.662 48.1966 276.406 46.9064 273.074 46.0861C264.882 44.0694 256.907 43.368 245.669 43.125L245.865 48.5488Z" fill="#FFCA28"/>
</svg>
