<svg width="512" height="512" viewBox="0 0 512 512" fill="none" xmlns="http://www.w3.org/2000/svg">
<path opacity="0.5" fill-rule="evenodd" clip-rule="evenodd" d="M213.668 469.67H299.002C379.455 469.67 419.683 469.67 444.676 444.676C469.67 419.683 469.67 379.455 469.67 299.002V289.677C469.67 271.057 469.67 257.069 468.761 245.67H384.336H382.311C358.906 245.673 338.224 245.675 321.549 243.432C303.478 241.003 285.408 235.424 270.663 220.676C255.915 205.929 250.336 187.86 247.906 169.788C245.664 153.116 245.666 132.432 245.668 109.027L245.865 48.5589C245.871 46.8001 246.022 45.0606 246.308 43.3554C237.591 43 227.232 43 214.304 43C133.426 43 92.9876 43 67.9937 67.9937C43 92.9876 43 133.214 43 213.668V299.002C43 379.455 43 419.683 67.9937 444.676C92.9876 469.67 133.214 469.67 213.668 469.67Z" fill="#FFCA28"/>
<path d="M245.865 48.5488L245.669 109.017C245.666 132.421 245.664 153.106 247.906 169.778C250.336 187.85 255.915 205.92 270.663 220.668C285.411 235.413 303.478 240.992 321.552 243.422C338.224 245.664 358.907 245.662 382.312 245.66H468.762C469.026 248.979 469.214 252.516 469.346 256.324H469.67C469.67 250.618 469.67 247.765 469.459 244.405C468.252 225.322 460.32 203.455 449.009 188.036C447.018 185.322 445.655 183.693 442.933 180.434C426.026 160.197 403.771 134.989 384.336 117.657C367.039 102.231 343.348 85.3547 322.685 71.5549C304.935 59.6988 296.058 53.7706 283.888 49.3646C280.662 48.1966 276.406 46.9064 273.074 46.0861C264.882 44.0694 256.907 43.368 245.669 43.125L245.865 48.5488Z" fill="#FFCA28"/>
<path d="M133.312 408.25C128.562 408.25 123.896 407.646 119.312 406.438C114.771 405.229 110.646 403.354 106.938 400.812C103.271 398.271 100.333 395.021 98.125 391.062C95.9583 387.062 94.875 382.292 94.875 376.75H118.375C118.375 379.25 118.667 381.333 119.25 383C119.875 384.667 120.812 386.021 122.062 387.062C123.312 388.062 124.875 388.792 126.75 389.25C128.625 389.667 130.812 389.875 133.312 389.875C135.896 389.875 137.938 389.521 139.438 388.812C140.979 388.104 142.083 387.188 142.75 386.062C143.417 384.938 143.75 383.75 143.75 382.5C143.75 380.875 143.396 379.438 142.688 378.188C142.021 376.938 140.604 375.708 138.438 374.5C136.312 373.25 133.062 371.896 128.688 370.438C124.771 369.104 120.958 367.583 117.25 365.875C113.542 364.167 110.208 362.167 107.25 359.875C104.292 357.542 101.938 354.812 100.188 351.688C98.4375 348.521 97.5625 344.833 97.5625 340.625C97.5625 335.292 99.1042 330.708 102.188 326.875C105.271 323 109.479 320.021 114.812 317.938C120.146 315.812 126.208 314.75 133 314.75C139.708 314.75 145.625 315.896 150.75 318.188C155.917 320.438 159.958 323.688 162.875 327.938C165.833 332.188 167.312 337.271 167.312 343.188H143.938C143.938 341.229 143.521 339.5 142.688 338C141.896 336.5 140.646 335.333 138.938 334.5C137.271 333.667 135.125 333.25 132.5 333.25C129.958 333.25 127.812 333.604 126.062 334.312C124.354 335.021 123.062 335.958 122.188 337.125C121.354 338.25 120.938 339.521 120.938 340.938C120.938 342.562 121.604 343.979 122.938 345.188C124.271 346.396 126.125 347.521 128.5 348.562C130.875 349.604 133.625 350.646 136.75 351.688C143.25 353.771 148.75 356.208 153.25 359C157.792 361.75 161.25 365.042 163.625 368.875C166 372.667 167.188 377.167 167.188 382.375C167.188 387.917 165.792 392.625 163 396.5C160.25 400.333 156.333 403.25 151.25 405.25C146.167 407.25 140.188 408.25 133.312 408.25ZM231.125 316H257.375L227 407H210.062L213.062 383.562L231.125 316ZM215.25 383.562L218.438 407H201.375L171.188 316H197.312L215.25 383.562ZM338.688 395.75C337.062 397.5 334.625 399.354 331.375 401.312C328.167 403.229 324.125 404.875 319.25 406.25C314.375 407.583 308.646 408.25 302.062 408.25C293.896 408.25 286.771 406.542 280.688 403.125C274.646 399.667 269.938 394.625 266.562 388C263.229 381.333 261.562 373.208 261.562 363.625V359.5C261.562 349.875 263.25 341.729 266.625 335.062C270 328.396 274.646 323.333 280.562 319.875C286.479 316.417 293.229 314.688 300.812 314.688C309.354 314.688 316.292 316.042 321.625 318.75C326.958 321.417 330.979 325.146 333.688 329.938C336.396 334.729 338.042 340.25 338.625 346.5H316.062C315.688 343.583 314.958 341.167 313.875 339.25C312.792 337.333 311.271 335.896 309.312 334.938C307.354 333.979 304.792 333.5 301.625 333.5C298.333 333.5 295.458 334.417 293 336.25C290.583 338.083 288.708 340.917 287.375 344.75C286.042 348.542 285.375 353.417 285.375 359.375V363.625C285.375 369.458 286 374.292 287.25 378.125C288.542 381.917 290.542 384.75 293.25 386.625C295.958 388.458 299.458 389.375 303.75 389.375C305.875 389.375 307.667 389.229 309.125 388.938C310.625 388.604 311.875 388.208 312.875 387.75C313.875 387.292 314.646 386.833 315.188 386.375V374H301V357.375H338.688V395.75Z" fill="#FFCA28"/>
</svg>
