<svg width="512" height="512" viewBox="0 0 512 512" fill="none" xmlns="http://www.w3.org/2000/svg">
<path d="M390.318 131.148H223.849L182.232 89.5309H78.1888C55.2993 89.5309 36.5715 108.259 36.5715 131.148V380.852C36.5715 403.741 55.2993 422.469 78.1888 422.469H400.723C418.41 422.469 431.936 408.944 431.936 391.256V172.765C431.936 149.876 413.208 131.148 390.318 131.148Z" fill="#FFA000"/>
<path d="M434.016 193.574H154.14C134.372 193.574 116.685 208.14 113.563 227.908L78.1887 422.469H408.006C427.774 422.469 445.461 407.903 448.582 388.135L474.593 242.474C479.795 217.504 460.027 193.574 434.016 193.574Z" fill="#FFCA28"/>
</svg>
