<svg width="512" height="512" viewBox="0 0 512 512" fill="none" xmlns="http://www.w3.org/2000/svg">
<path d="M94.432 435.216L58.48 32H453.52L417.52 435.152L255.76 480L94.432 435.216Z" fill="#E44F26"/>
<path d="M256 445.728L386.72 409.488L417.472 64.976H256V445.728Z" fill="#F1662A"/>
<path d="M256 214.512H190.56L186.048 163.872H256V114.416H255.824H132L133.184 127.696L145.328 263.968H256V214.512Z" fill="#EBEBEB"/>
<path d="M256 342.944L255.776 343.008L200.704 328.144L197.184 288.704H170.416H147.536L154.464 366.336L255.776 394.464L256 394.4V342.944Z" fill="#EBEBEB"/>
<path d="M255.824 214.512V263.968H316.72L310.992 328.112L255.824 342.992V394.448L357.216 366.336L357.952 357.984L369.568 227.792L370.784 214.512H357.456H255.824Z" fill="white"/>
<path d="M255.824 114.416V145.136V163.76V163.872H375.12H375.28L376.272 152.768L378.528 127.696L379.712 114.416H255.824Z" fill="white"/>
</svg>
