<svg width="512" height="512" viewBox="0 0 512 512" fill="none" xmlns="http://www.w3.org/2000/svg">
<path d="M480 32H32V480H480V32Z" fill="#FFCA28"/>
<path d="M304 404.606L336.984 382.779C339.57 390.901 355.939 410.189 376.616 410.189C397.293 410.189 406.893 398.896 406.893 391.408C406.893 371.005 385.779 363.811 375.638 360.357C373.984 359.794 372.624 359.33 371.693 358.925C371.214 358.717 370.493 358.44 369.566 358.086C358.288 353.778 316.677 337.88 316.677 291.797C316.677 241.04 365.661 235.203 376.739 235.203C383.986 235.203 418.83 236.091 436.184 268.702L404.184 291.037C397.17 276.824 385.514 272.13 378.339 272.13C360.616 272.13 356.923 285.122 356.923 291.037C356.923 307.632 376.179 315.07 392.437 321.35C396.691 322.994 400.739 324.557 404.184 326.186C421.907 334.56 448 348.266 448 391.408C448 413.018 429.875 448.003 384.246 448.003C322.954 448.003 306.707 411.205 304 404.606Z" fill="#3E3E3E"/>
<path d="M144 408.939L178.379 387.125C181.072 395.242 191.541 410.208 206.728 410.208C221.917 410.208 229.691 394.608 229.691 387.125V240.003H271.971V387.125C272.656 407.418 261.402 448.003 211.731 448.003C166.064 448.003 147.079 420.862 144 408.939Z" fill="#3E3E3E"/>
</svg>
