<svg width="512" height="512" viewBox="0 0 512 512" fill="none" xmlns="http://www.w3.org/2000/svg">
<g clip-path="url(#clip0_1_115)">
<path d="M449.757 107.582L437.742 95.5674L353.845 11.6612L353.827 11.6524L347.03 4.84635C343.896 1.72138 339.738 0 335.316 0H79.1216C68.6433 0 57.3793 8.08607 57.3793 25.8295V344.276V490.258V494.345C57.3793 501.734 64.8033 508.928 73.5867 511.197C74.0369 511.32 74.4695 511.488 74.9285 511.576C76.3056 511.85 77.7092 512 79.1216 512H432.878C434.291 512 435.694 511.85 437.071 511.576C437.53 511.488 437.963 511.32 438.413 511.197C447.197 508.928 454.621 501.734 454.621 494.345V490.258V344.276V123.392C454.621 116.621 453.8 111.616 449.757 107.582ZM348.69 31.4703L423.15 105.931H348.69V31.4703ZM79.1216 494.345C78.4949 494.345 77.9299 494.124 77.3738 493.912C76.0055 493.259 75.0344 491.882 75.0344 490.258V361.931H436.965V490.258C436.965 491.882 435.994 493.259 434.626 493.912C434.07 494.124 433.505 494.345 432.878 494.345H79.1216ZM75.0344 344.276V25.8295C75.0344 23.9139 75.3258 17.6552 79.1216 17.6552H331.546C331.255 18.7674 331.034 19.915 331.034 21.1068V121.644C326.338 117.407 320.185 114.759 313.379 114.759C308.498 114.759 304.552 118.713 304.552 123.586C304.552 128.459 308.498 132.414 313.379 132.414C318.252 132.414 322.207 136.377 322.207 141.241V176.552C322.207 187.145 326.991 196.555 334.407 203.034C326.991 209.514 322.207 218.924 322.207 229.517V264.828C322.207 269.692 318.252 273.655 313.379 273.655C308.498 273.655 304.552 277.61 304.552 282.483C304.552 287.356 308.498 291.31 313.379 291.31C327.98 291.31 339.862 279.428 339.862 264.828V229.517C339.862 219.78 347.78 211.862 357.517 211.862C362.399 211.862 366.345 207.907 366.345 203.034C366.345 198.162 362.399 194.207 357.517 194.207C347.78 194.207 339.862 186.289 339.862 176.552V141.241C339.862 134.435 337.205 128.282 332.977 123.586H433.514C434.706 123.586 435.853 123.366 436.965 123.074C436.965 123.207 436.974 123.26 436.974 123.392V344.276H75.0344Z" fill="#B6C214"/>
<path d="M144.366 454.003C144.199 457.94 142.857 460.747 140.323 462.389C137.79 464.031 134.391 464.861 130.127 464.861C128.441 464.861 126.632 464.666 124.698 464.26C122.765 463.854 120.911 463.395 119.146 462.874C117.38 462.354 115.747 461.789 114.255 461.188C112.764 460.588 111.616 459.997 110.813 459.441L104.66 469.213C106.275 470.422 108.235 471.508 110.574 472.47C112.914 473.432 115.341 474.297 117.875 475.065C120.408 475.833 122.862 476.39 125.237 476.751C127.612 477.113 129.686 477.299 131.452 477.299C134.991 477.299 138.434 476.954 141.771 476.275C145.108 475.595 148.065 474.386 150.643 472.655C153.22 470.925 155.268 468.63 156.796 465.779C158.323 462.927 159.091 459.396 159.091 455.221V385.942H144.366V454.003Z" fill="#B6C214"/>
<path d="M221.422 433.117C218.65 431.104 215.649 429.391 212.427 427.988C209.205 426.584 206.23 425.137 203.493 423.645C200.757 422.153 198.471 420.431 196.617 418.454C194.763 416.477 193.845 413.881 193.845 410.668C193.845 409.379 194.163 408.029 194.807 406.625C195.452 405.221 196.334 403.95 197.464 402.82C198.594 401.69 199.874 400.755 201.331 399.987C202.787 399.219 204.306 398.76 205.921 398.601C208.816 398.362 211.191 398.318 213.045 398.477C214.899 398.636 216.382 398.919 217.512 399.325C218.642 399.731 219.507 400.128 220.107 400.534C220.707 400.94 221.255 401.258 221.74 401.496C221.82 401.417 222.058 401.011 222.464 400.287C222.87 399.563 223.356 398.654 223.912 397.568C224.468 396.482 225.077 395.317 225.721 394.072C226.366 392.828 226.931 391.68 227.407 390.629C225.068 389.102 222.023 387.99 218.236 387.31C214.448 386.631 210.706 386.286 207.016 386.286C203.396 386.286 199.954 386.842 196.696 387.972C193.439 389.102 190.588 390.735 188.125 392.863C185.662 394.99 183.72 397.586 182.272 400.649C180.824 403.712 180.083 407.217 180.083 411.154C180.083 415.497 181.001 419.116 182.855 422.012C184.708 424.907 187.039 427.423 189.855 429.55C192.671 431.678 195.69 433.532 198.903 435.103C202.116 436.674 205.118 438.237 207.898 439.808C210.679 441.379 212.983 443.127 214.837 445.06C216.691 446.994 217.609 449.324 217.609 452.061C217.609 456.572 216.302 459.97 213.689 462.257C211.076 464.543 207.307 465.699 202.408 465.699C200.792 465.699 199.071 465.532 197.217 465.214C195.363 464.896 193.518 464.472 191.664 463.943C189.811 463.413 188.028 462.857 186.297 462.257C184.567 461.656 183.146 461.029 182.016 460.385L179.482 470.766C180.851 471.976 182.484 473 184.373 473.847C186.262 474.695 188.248 475.357 190.349 475.842C192.441 476.328 194.516 476.672 196.564 476.866C198.612 477.06 200.607 477.166 202.54 477.166C207.051 477.166 211.068 476.487 214.607 475.118C218.147 473.75 221.122 471.923 223.541 469.628C225.96 467.332 227.822 464.675 229.155 461.665C230.488 458.655 231.15 455.53 231.15 452.308C231.15 447.559 230.232 443.674 228.378 440.664C226.525 437.654 224.194 435.129 221.422 433.117Z" fill="#B6C214"/>
<path d="M307.836 397.877C304.499 394.09 300.597 391.221 296.13 389.244C291.663 387.266 286.773 386.286 281.468 386.286C276.162 386.286 271.272 387.266 266.805 389.244C262.338 391.221 258.436 394.09 255.1 397.877C251.763 401.664 249.141 406.387 247.252 412.054C245.363 417.721 244.418 424.307 244.418 431.784C244.418 439.261 245.363 445.864 247.252 451.575C249.141 457.287 251.763 462.036 255.1 465.814C258.436 469.592 262.338 472.452 266.805 474.386C271.272 476.319 276.162 477.281 281.468 477.281C286.773 477.281 291.663 476.319 296.13 474.386C300.597 472.452 304.499 469.601 307.836 465.814C311.172 462.027 313.794 457.287 315.683 451.575C317.572 445.864 318.517 439.261 318.517 431.784C318.517 424.307 317.572 417.721 315.683 412.054C313.794 406.387 311.172 401.664 307.836 397.877ZM301.859 447.541C300.65 451.84 298.982 455.327 296.854 457.984C294.727 460.641 292.308 462.557 289.615 463.713C286.923 464.869 284.081 465.461 281.106 465.461C278.21 465.461 275.447 464.843 272.834 463.589C270.221 462.336 267.882 460.376 265.834 457.675C263.786 454.974 262.17 451.505 261.005 447.232C259.84 442.959 259.213 437.822 259.134 431.784C259.213 425.587 259.858 420.361 261.067 416.097C262.276 411.833 263.945 408.355 266.072 405.654C268.2 402.953 270.618 401.055 273.311 399.925C276.003 398.795 278.846 398.239 281.821 398.239C284.716 398.239 287.479 398.839 290.092 400.049C292.705 401.258 295.044 403.226 297.092 405.963C299.14 408.7 300.756 412.178 301.921 416.406C303.086 420.634 303.713 425.763 303.793 431.793C303.713 437.99 303.069 443.242 301.859 447.541Z" fill="#B6C214"/>
<path d="M388.52 449.05L353.642 387.743H338.917V476.69H353.642V415.382L388.52 476.69H403.244V387.743H388.52V449.05Z" fill="#B6C214"/>
<path d="M180.965 176.552V141.241C180.965 136.377 184.92 132.414 189.793 132.414C194.675 132.414 198.621 128.459 198.621 123.586C198.621 118.713 194.675 114.759 189.793 114.759C175.192 114.759 163.31 126.641 163.31 141.241V176.552C163.31 186.289 155.392 194.207 145.655 194.207C140.773 194.207 136.828 198.162 136.828 203.034C136.828 207.907 140.773 211.862 145.655 211.862C155.392 211.862 163.31 219.78 163.31 229.517V264.828C163.31 279.428 175.192 291.31 189.793 291.31C194.675 291.31 198.621 287.356 198.621 282.483C198.621 277.61 194.675 273.655 189.793 273.655C184.92 273.655 180.965 269.692 180.965 264.828V229.517C180.965 218.924 176.181 209.514 168.766 203.034C176.181 196.555 180.965 187.145 180.965 176.552Z" fill="#B6C214"/>
<path d="M251.586 185.379C258.899 185.379 264.827 179.451 264.827 172.138C264.827 164.825 258.899 158.897 251.586 158.897C244.273 158.897 238.345 164.825 238.345 172.138C238.345 179.451 244.273 185.379 251.586 185.379Z" fill="#B6C214"/>
<path d="M251.586 220.69C246.704 220.69 242.759 224.644 242.759 229.517V256C242.759 260.873 246.704 264.828 251.586 264.828C256.468 264.828 260.414 260.873 260.414 256V229.517C260.414 224.644 256.468 220.69 251.586 220.69Z" fill="#B6C214"/>
</g>
<defs>
<clipPath id="clip0_1_115">
<rect width="512" height="512" fill="white"/>
</clipPath>
</defs>
</svg>
