<svg width="512" height="512" viewBox="0 0 512 512" fill="none" xmlns="http://www.w3.org/2000/svg">
<path d="M426.667 128.001H234.667L192 85.334H85.3334C61.8667 85.334 42.6667 104.534 42.6667 128.001V213.334H469.333V170.667C469.333 147.201 450.133 128.001 426.667 128.001Z" fill="#FFA000"/>
<path d="M426.667 128.001H85.3334C61.8667 128.001 42.6667 147.201 42.6667 170.667V384.001C42.6667 407.467 61.8667 426.667 85.3334 426.667H426.667C450.133 426.667 469.333 407.467 469.333 384.001V170.667C469.333 147.201 450.133 128.001 426.667 128.001Z" fill="#FFCA28"/>
<path fill-rule="evenodd" clip-rule="evenodd" d="M256 310C256 257.533 298.533 215 351 215C403.467 215 446 257.533 446 310C446 342.769 429.409 371.663 404.168 388.74L318.154 268.319C316.553 266.079 313.689 265.129 311.067 265.969C308.445 266.809 306.667 269.247 306.667 272.001V367H319.333V291.763L393.179 395.147C380.47 401.455 366.149 405 351 405C298.533 405 256 362.467 256 310ZM382.667 341.667V265.667H395.333V341.667H382.667Z" fill="black"/>
</svg>
