<svg width="512" height="512" viewBox="0 0 512 512" fill="none" xmlns="http://www.w3.org/2000/svg">
<path d="M390.318 131.149H223.849L182.232 89.5316H78.1887C55.2992 89.5316 36.5714 108.259 36.5714 131.149V380.853C36.5714 403.742 55.2992 422.47 78.1887 422.47H400.723C418.41 422.47 431.935 408.944 431.935 391.257V172.766C431.935 149.877 413.208 131.149 390.318 131.149Z" fill="#FFA000"/>
<path d="M434.016 193.575H154.14C134.372 193.575 116.685 208.141 113.563 227.909L78.1887 422.47H408.006C427.774 422.47 445.461 407.904 448.582 388.136L474.593 242.475C479.795 217.505 460.027 193.575 434.016 193.575Z" fill="#FFCA28"/>
<path fill-rule="evenodd" clip-rule="evenodd" d="M250 314C250 261.533 292.533 219 345 219C397.467 219 440 261.533 440 314C440 346.769 423.409 375.663 398.168 392.74L312.154 272.319C310.553 270.079 307.689 269.129 305.067 269.969C302.445 270.809 300.667 273.247 300.667 276.001V371H313.333V295.763L387.179 399.147C374.47 405.455 360.149 409 345 409C292.533 409 250 366.467 250 314ZM376.667 345.667V269.667H389.333V345.667H376.667Z" fill="black"/>
</svg>
