<svg width="512" height="512" viewBox="0 0 512 512" fill="none" xmlns="http://www.w3.org/2000/svg">
<g clip-path="url(#clip0_1_135)">
<path fill-rule="evenodd" clip-rule="evenodd" d="M0 256C0 114.615 114.615 0 256 0C397.384 0 512 114.615 512 256C512 344.303 467.292 422.165 399.275 468.183L167.488 143.682C163.175 137.644 155.457 135.085 148.392 137.349C141.326 139.613 136.533 146.182 136.533 153.601V409.6H170.667V206.857L369.661 485.448C335.415 502.446 296.823 512 256 512C114.615 512 0 397.384 0 256ZM341.333 341.333V136.533H375.467V341.333H341.333Z" fill="black"/>
</g>
<defs>
<clipPath id="clip0_1_135">
<rect width="512" height="512" fill="white"/>
</clipPath>
</defs>
</svg>
