<svg width="512" height="512" viewBox="0 0 512 512" fill="none" xmlns="http://www.w3.org/2000/svg">
<path d="M390.318 131.149H223.849L182.232 89.5317H78.1888C55.2993 89.5317 36.5715 108.259 36.5715 131.149V380.853C36.5715 403.742 55.2993 422.47 78.1888 422.47H400.723C418.41 422.47 431.936 408.944 431.936 391.257V172.766C431.936 149.877 413.208 131.149 390.318 131.149Z" fill="#FFA000"/>
<path d="M434.016 193.575H154.14C134.372 193.575 116.685 208.141 113.563 227.909L78.1887 422.47H408.006C427.774 422.47 445.461 407.904 448.582 388.136L474.593 242.475C479.795 217.505 460.027 193.575 434.016 193.575Z" fill="#FFCA28"/>
<path d="M440 327.501C440 372.512 403.511 409.001 358.5 409.001C313.489 409.001 277 372.512 277 327.501M440 327.501C440 282.49 403.511 246.001 358.5 246.001C313.489 246.001 277 282.49 277 327.501M440 327.501H277M358.503 409.001C374.257 409.001 387.028 372.512 387.028 327.501C387.028 282.49 374.257 246.001 358.503 246.001C342.749 246.001 329.978 282.49 329.978 327.501C329.978 372.512 342.749 409.001 358.503 409.001Z" stroke="white" stroke-width="12" stroke-linecap="round" stroke-linejoin="round"/>
</svg>
