<svg width="512" height="512" viewBox="0 0 512 512" fill="none" xmlns="http://www.w3.org/2000/svg">
<path d="M390.318 131.149H223.849L182.232 89.5317H78.1886C55.2991 89.5317 36.5713 108.259 36.5713 131.149V380.853C36.5713 403.742 55.2991 422.47 78.1886 422.47H400.722C418.41 422.47 431.935 408.944 431.935 391.257V172.766C431.935 149.877 413.208 131.149 390.318 131.149Z" fill="#FFA000"/>
<path d="M434.016 193.575H154.14C134.372 193.575 116.684 208.141 113.563 227.909L78.1885 422.47H408.005C427.774 422.47 445.461 407.904 448.582 388.136L474.593 242.475C479.795 217.505 460.027 193.575 434.016 193.575Z" fill="#FFCA28"/>
<path d="M428 314C428 361.496 389.496 400 342 400C294.503 400 256 361.496 256 314M428 314C428 266.503 389.496 228 342 228C294.503 228 256 266.503 256 314M428 314H256M342.003 400C358.627 400 372.103 361.496 372.103 314C372.103 266.503 358.627 228 342.003 228C325.379 228 311.903 266.503 311.903 314C311.903 361.496 325.379 400 342.003 400Z" stroke="white" stroke-width="28" stroke-linecap="round" stroke-linejoin="round"/>
</svg>
