<svg width="512" height="512" viewBox="0 0 512 512" fill="none" xmlns="http://www.w3.org/2000/svg">
<path d="M426.667 128.001H234.667L192 85.3341H85.3332C61.8665 85.3341 42.6665 104.534 42.6665 128.001V213.334H469.333V170.667C469.333 147.201 450.133 128.001 426.667 128.001Z" fill="#FFA000"/>
<path d="M426.667 128.001H85.3332C61.8665 128.001 42.6665 147.201 42.6665 170.667V384.001C42.6665 407.467 61.8665 426.667 85.3332 426.667H426.667C450.133 426.667 469.333 407.467 469.333 384.001V170.667C469.333 147.201 450.133 128.001 426.667 128.001Z" fill="#FFCA28"/>
<path d="M434 301C434 353.467 391.467 396 339 396C286.533 396 244 353.467 244 301M434 301C434 248.533 391.467 206 339 206C286.533 206 244 248.533 244 301M434 301H244M339.003 396C357.367 396 372.253 353.467 372.253 301C372.253 248.533 357.367 206 339.003 206C320.64 206 305.753 248.533 305.753 301C305.753 353.467 320.64 396 339.003 396Z" stroke="white" stroke-width="28" stroke-linecap="round" stroke-linejoin="round"/>
</svg>
