<svg width="512" height="512" viewBox="0 0 512 512" fill="none" xmlns="http://www.w3.org/2000/svg">
<path d="M426.667 128.001H234.667L192 85.3341H85.3334C61.8667 85.3341 42.6667 104.534 42.6667 128.001V213.334H469.333V170.667C469.333 147.201 450.133 128.001 426.667 128.001Z" fill="#FFA000"/>
<path d="M426.667 128.001H85.3334C61.8667 128.001 42.6667 147.201 42.6667 170.667V384.001C42.6667 407.467 61.8667 426.667 85.3334 426.667H426.667C450.133 426.667 469.333 407.467 469.333 384.001V170.667C469.333 147.201 450.133 128.001 426.667 128.001Z" fill="#FFCA28"/>
<path d="M446 323.501C446 368.512 409.511 405.001 364.5 405.001C319.489 405.001 283 368.512 283 323.501M446 323.501C446 278.49 409.511 242.001 364.5 242.001C319.489 242.001 283 278.49 283 323.501M446 323.501H283M364.503 405.001C380.257 405.001 393.028 368.512 393.028 323.501C393.028 278.49 380.257 242.001 364.503 242.001C348.749 242.001 335.978 278.49 335.978 323.501C335.978 368.512 348.749 405.001 364.503 405.001Z" stroke="white" stroke-width="12" stroke-linecap="round" stroke-linejoin="round"/>
</svg>
