<svg width="512" height="512" viewBox="0 0 512 512" fill="none" xmlns="http://www.w3.org/2000/svg">
<path d="M390.318 131.149H223.849L182.232 89.5317H78.1888C55.2993 89.5317 36.5715 108.259 36.5715 131.149V380.853C36.5715 403.742 55.2993 422.47 78.1888 422.47H400.723C418.41 422.47 431.936 408.944 431.936 391.257V172.766C431.936 149.877 413.208 131.149 390.318 131.149Z" fill="#0065A9"/>
<path d="M434.016 193.575H154.14C134.372 193.575 116.685 208.141 113.563 227.909L78.1887 422.47H408.006C427.774 422.47 445.461 407.904 448.582 388.136L474.593 242.475C479.795 217.505 460.027 193.575 434.016 193.575Z" fill="#00497B"/>
<path d="M433.237 260.268L399.674 244.014C397.778 243.094 395.646 242.791 393.571 243.146C391.497 243.5 389.583 244.495 388.096 245.993L278.226 346.75C276.893 347.966 276.095 349.666 276.008 351.474C275.921 353.283 276.551 355.052 277.761 356.393C277.906 356.551 278.052 356.703 278.209 356.844L287.179 365.041C288.351 366.114 289.86 366.741 291.443 366.811C293.026 366.882 294.584 366.392 295.846 365.428L428.185 264.484C429.184 263.721 430.376 263.253 431.625 263.135C432.874 263.016 434.132 263.25 435.256 263.811C436.38 264.372 437.326 265.238 437.987 266.31C438.649 267.383 438.999 268.62 439 269.882V269.49C439 267.563 438.459 265.675 437.44 264.044C436.42 262.412 434.963 261.103 433.237 260.268Z" fill="#0065A9"/>
<path d="M433.237 388.731L399.674 404.991C397.778 405.908 395.646 406.21 393.572 405.856C391.498 405.501 389.585 404.508 388.096 403.012L278.226 302.25C276.893 301.033 276.095 299.334 276.008 297.525C275.921 295.717 276.551 293.947 277.761 292.606C277.906 292.448 278.052 292.296 278.209 292.155L287.179 283.958C288.352 282.88 289.864 282.252 291.452 282.181C293.039 282.11 294.6 282.602 295.864 283.572L428.185 384.516C429.184 385.279 430.376 385.746 431.625 385.865C432.874 385.983 434.132 385.749 435.256 385.188C436.38 384.627 437.326 383.761 437.987 382.689C438.649 381.616 438.999 380.379 439 379.117V379.539C438.994 381.461 438.45 383.342 437.431 384.967C436.412 386.593 434.959 387.897 433.237 388.731Z" fill="#007ACC"/>
<path d="M399.674 404.991C397.778 405.908 395.646 406.21 393.572 405.856C391.498 405.501 389.585 404.508 388.096 403.012C388.932 403.842 389.993 404.406 391.146 404.632C392.298 404.858 393.492 404.736 394.576 404.283C395.661 403.83 396.588 403.065 397.243 402.083C397.897 401.102 398.248 399.949 398.254 398.767V250.232C398.255 249.045 397.905 247.885 397.25 246.897C396.595 245.91 395.663 245.141 394.573 244.687C393.483 244.233 392.283 244.115 391.126 244.347C389.969 244.58 388.906 245.152 388.073 245.993C389.56 244.496 391.473 243.501 393.547 243.145C395.622 242.79 397.754 243.091 399.651 244.008L433.208 260.239C434.94 261.07 436.402 262.377 437.427 264.009C438.452 265.64 438.997 267.53 439 269.461V379.539C439 381.467 438.459 383.357 437.439 384.989C436.418 386.622 434.96 387.931 433.231 388.767L399.674 404.991Z" fill="#1F9CF0"/>
</svg>
