<svg width="512" height="512" viewBox="0 0 512 512" fill="none" xmlns="http://www.w3.org/2000/svg">
<path d="M426.667 128.001H234.667L192 85.3341H85.3334C61.8667 85.3341 42.6667 104.534 42.6667 128.001V213.334H469.333V170.667C469.333 147.201 450.133 128.001 426.667 128.001Z" fill="#0065A9"/>
<path d="M426.667 128.001H85.3334C61.8667 128.001 42.6667 147.201 42.6667 170.667V384.001C42.6667 407.467 61.8667 426.667 85.3334 426.667H426.667C450.133 426.667 469.333 407.467 469.333 384.001V170.667C469.333 147.201 450.133 128.001 426.667 128.001Z" fill="#00497B"/>
<path d="M439.237 256.268L405.674 240.014C403.778 239.094 401.646 238.791 399.571 239.146C397.497 239.5 395.583 240.495 394.096 241.993L284.226 342.75C282.893 343.966 282.095 345.666 282.008 347.474C281.921 349.283 282.551 351.052 283.761 352.393C283.906 352.551 284.052 352.703 284.209 352.844L293.179 361.041C294.351 362.114 295.86 362.741 297.443 362.811C299.026 362.882 300.584 362.392 301.846 361.428L434.185 260.484C435.184 259.721 436.376 259.253 437.625 259.135C438.874 259.016 440.132 259.25 441.256 259.811C442.38 260.372 443.326 261.238 443.987 262.31C444.649 263.383 444.999 264.62 445 265.882V265.49C445 263.563 444.459 261.675 443.44 260.044C442.42 258.412 440.963 257.103 439.237 256.268Z" fill="#0065A9"/>
<path d="M439.237 384.731L405.674 400.991C403.778 401.908 401.646 402.21 399.572 401.856C397.498 401.501 395.585 400.508 394.096 399.012L284.226 298.25C282.893 297.033 282.095 295.334 282.008 293.525C281.921 291.717 282.551 289.947 283.761 288.606C283.906 288.448 284.052 288.296 284.209 288.155L293.179 279.958C294.352 278.88 295.864 278.252 297.452 278.181C299.039 278.11 300.6 278.602 301.864 279.572L434.185 380.516C435.184 381.279 436.376 381.746 437.625 381.865C438.874 381.983 440.132 381.749 441.256 381.188C442.38 380.627 443.326 379.761 443.987 378.689C444.649 377.616 444.999 376.379 445 375.117V375.539C444.994 377.461 444.45 379.342 443.431 380.967C442.412 382.593 440.959 383.897 439.237 384.731Z" fill="#007ACC"/>
<path d="M405.674 400.991C403.778 401.908 401.646 402.21 399.572 401.856C397.498 401.501 395.585 400.508 394.096 399.012C394.932 399.842 395.993 400.406 397.146 400.632C398.298 400.858 399.492 400.736 400.576 400.283C401.661 399.83 402.588 399.065 403.243 398.083C403.897 397.102 404.248 395.949 404.254 394.767V246.232C404.255 245.045 403.905 243.885 403.25 242.897C402.595 241.91 401.663 241.141 400.573 240.687C399.483 240.233 398.283 240.115 397.126 240.347C395.969 240.58 394.906 241.152 394.073 241.993C395.56 240.496 397.473 239.501 399.547 239.145C401.622 238.79 403.754 239.091 405.651 240.008L439.208 256.239C440.94 257.07 442.402 258.377 443.427 260.009C444.452 261.64 444.997 263.53 445 265.461V375.539C445 377.467 444.459 379.357 443.439 380.989C442.418 382.622 440.96 383.931 439.231 384.767L405.674 400.991Z" fill="#1F9CF0"/>
</svg>
