<svg width="512" height="512" viewBox="0 0 512 512" fill="none" xmlns="http://www.w3.org/2000/svg">
<path d="M464.16 80.48L371.904 36.064C366.694 33.552 360.832 32.723 355.129 33.692C349.427 34.661 344.168 37.38 340.08 41.472L38.08 316.8C34.4158 320.125 32.2225 324.769 31.9824 329.711C31.7424 334.653 33.4753 339.488 36.8 343.152C37.2 343.584 37.6 344 38.032 344.384L62.688 366.784C65.9098 369.716 70.0569 371.427 74.409 371.62C78.7611 371.813 83.0434 370.476 86.512 367.84L450.272 92C453.02 89.9151 456.295 88.6384 459.728 88.3139C463.162 87.9893 466.618 88.6296 469.708 90.1627C472.797 91.6959 475.398 94.061 477.216 96.9919C479.034 99.9227 479.999 103.303 480 106.752V105.68C480 100.414 478.513 95.2559 475.711 90.7978C472.908 86.3398 468.905 82.7634 464.16 80.48Z" fill="#0065A9"/>
<path d="M464.16 431.52L371.904 475.952C366.692 478.457 360.832 479.282 355.131 478.313C349.431 477.345 344.171 474.63 340.08 470.544L38.08 195.2C34.4158 191.875 32.2225 187.231 31.9824 182.289C31.7424 177.347 33.4753 172.512 36.8 168.848C37.2 168.416 37.6 168 38.032 167.616L62.688 145.216C65.9131 142.271 70.0696 140.553 74.4325 140.36C78.7954 140.167 83.0875 141.512 86.56 144.16L450.272 420C453.02 422.085 456.295 423.362 459.728 423.686C463.162 424.011 466.618 423.37 469.708 421.837C472.797 420.304 475.398 417.939 477.216 415.008C479.034 412.077 479.999 408.697 480 405.248V406.4C479.983 411.652 478.488 416.792 475.687 421.234C472.886 425.677 468.891 429.241 464.16 431.52Z" fill="#007ACC"/>
<path d="M371.904 475.952C366.692 478.457 360.832 479.282 355.131 478.313C349.431 477.345 344.171 474.63 340.08 470.544C342.378 472.812 345.293 474.351 348.462 474.969C351.631 475.586 354.911 475.255 357.892 474.016C360.874 472.778 363.423 470.687 365.221 468.006C367.019 465.324 367.986 462.172 368 458.944V53.056C368.003 49.8126 367.043 46.6414 365.241 43.9441C363.44 41.2468 360.879 39.1447 357.882 37.9042C354.886 36.6637 351.588 36.3405 348.407 36.9757C345.227 37.6108 342.306 39.1756 340.016 41.472C344.104 37.3814 349.363 34.6623 355.064 33.6906C360.765 32.7189 366.627 33.5427 371.84 36.048L464.08 80.4C468.84 82.672 472.86 86.2435 475.677 90.7024C478.494 95.1613 479.992 100.326 480 105.6V406.4C480.001 411.67 478.513 416.833 475.708 421.294C472.903 425.756 468.894 429.334 464.144 431.616L371.904 475.952Z" fill="#1F9CF0"/>
</svg>
